<?xml version="1.0" encoding="UTF-8"?>
<svg version="1.1" xmlns="http://www.w3.org/2000/svg" width="512" height="512">
<path d="M0 0 C1.29822194 0.58187815 2.5972391 1.16198474 3.89697266 1.74047852 C6.7345283 3.00557926 9.56806079 4.27918689 12.39941406 5.55810547 C17.23916094 7.73902732 22.09810602 9.87504421 26.9609375 12.00390625 C27.810047 12.37563965 28.65915649 12.74737305 29.53399658 13.13037109 C31.27017633 13.89026367 33.00640307 14.65004888 34.74267578 15.409729 C39.15078453 17.34016746 43.55570374 19.27785598 47.9609375 21.21484375 C56.6363434 25.02804823 65.3167689 28.82965469 74 32.625 C82.57739299 36.37430189 91.15231436 40.12913504 99.72265625 43.89453125 C100.5629538 44.26371674 101.40325134 44.63290222 102.26901245 45.01327515 C103.99444878 45.77137586 105.7198821 46.52948344 107.4453125 47.28759766 C120.98807253 53.23782151 134.53668406 59.17409751 148.09912109 65.0793457 C150.48693518 66.11930988 152.87439407 67.16008476 155.26171875 68.20117188 C156.05119904 68.5454422 156.84067932 68.88971252 157.65408325 69.24441528 C159.25946082 69.94448468 160.86482782 70.64457834 162.47018433 71.34469604 C166.84328717 73.25119722 171.21784265 75.15429128 175.59423828 77.05322266 C180.33676346 79.11102004 185.07682949 81.17439232 189.81542969 83.24121094 C191.62881119 84.03089893 193.44308581 84.81853958 195.25830078 85.60400391 C197.78004054 86.69548918 200.29852307 87.79418448 202.81640625 88.89453125 C203.55834732 89.2135994 204.30028839 89.53266754 205.06471252 89.86140442 C215.27161071 94.34666867 215.27161071 94.34666867 218.375 98.4375 C219.68610901 103.02638153 219.63138088 106.42422136 217.3984375 110.67089844 C214.52550185 114.2094287 212.53939653 115.05075989 208.25 116.515625 C207.5595459 116.75637756 206.8690918 116.99713013 206.15771484 117.24517822 C203.77960358 118.06386696 201.39156224 118.84651832 199 119.625 C198.11666992 119.91721436 197.23333984 120.20942871 196.32324219 120.51049805 C189.23267017 122.85320622 182.11877151 125.11971729 175 127.375 C172.78175225 128.08051725 170.56357247 128.78624824 168.34545898 129.4921875 C162.89991785 131.22381776 157.45258948 132.94974492 152.00457764 134.67358398 C149.20575138 135.55984769 146.40763851 136.44831547 143.60986328 137.33789062 C139.77721889 138.55632811 135.94324401 139.77044331 132.10766602 140.97961426 C130.7534217 141.4069683 129.39957381 141.8355808 128.04614258 142.26550293 C126.21048375 142.8478984 124.37287606 143.42414089 122.53515625 144 C121.528479 144.31710938 120.52180176 144.63421875 119.48461914 144.9609375 C117 145.625 117 145.625 114 145.625 C114.00888245 146.77678741 114.01776489 147.92857483 114.0269165 149.11526489 C114.10803038 159.9738556 114.16797899 170.83238477 114.20724869 181.69120979 C114.22811644 187.27376058 114.25641969 192.85606663 114.30175781 198.43847656 C114.34524388 203.82661212 114.36914322 209.21451239 114.37950897 214.60280991 C114.38689533 216.65771056 114.40131919 218.71259845 114.42292023 220.76739883 C114.45199056 223.64746094 114.45595444 226.52655288 114.45410156 229.40673828 C114.46848267 230.25478531 114.48286377 231.10283234 114.49768066 231.97657776 C114.46041059 237.33640318 113.5712349 240.38065356 110 244.625 C107.82793346 246.26262385 105.84097278 247.60665806 103.5 248.9375 C102.849104 249.31503418 102.19820801 249.69256836 101.52758789 250.08154297 C82.74633289 260.70630443 62.56644795 267.6587561 41.5625 272.375 C40.74354248 272.5615918 39.92458496 272.74818359 39.08081055 272.94042969 C21.53347952 276.64440444 3.9268638 278.129078 -13.97949219 278.01611328 C-16.99980783 278.00000103 -20.01878616 278.01610242 -23.0390625 278.03515625 C-61.86716386 278.07718056 -117.44572414 270.38376373 -146.5818634 242.08880615 C-148.72619726 238.36333784 -148.43946913 234.86268097 -148.43237305 230.63378906 C-148.44766052 229.27228981 -148.44766052 229.27228981 -148.46325684 227.88328552 C-148.49343062 224.88566958 -148.50265954 221.88837297 -148.51171875 218.890625 C-148.52856217 216.81124811 -148.54671195 214.73188142 -148.56611633 212.65252686 C-148.61365894 207.18140857 -148.64344083 201.71033165 -148.66955566 196.23907471 C-148.69933962 190.65539378 -148.7458774 185.07185543 -148.79101562 179.48828125 C-148.87709727 168.53392868 -148.94442101 157.57954681 -149 146.625 C-157.64121505 143.82451274 -166.28276843 141.02507256 -174.92473888 138.22691727 C-178.93883933 136.92716971 -182.95282845 135.62708064 -186.96655273 134.32617188 C-190.85017045 133.06744722 -194.73409417 131.80967085 -198.61821938 130.55251312 C-200.08964979 130.07608581 -201.56097524 129.59933414 -203.03218651 129.12223053 C-205.11516258 128.44680115 -207.19853164 127.77259625 -209.28198242 127.09863281 C-211.05069954 126.52571503 -211.05069954 126.52571503 -212.85514832 125.94122314 C-218.55790104 124.13027894 -224.2812053 122.38462914 -230 120.625 C-230 146.365 -230 172.105 -230 198.625 C-228.35 199.285 -226.7 199.945 -225 200.625 C-217.58633806 205.82017977 -212.10196859 212.58536169 -210.28125 221.56640625 C-209.08635505 230.31237343 -210.54490978 237.90367265 -214.625 245.75 C-221.15897035 253.65954305 -227.33476202 258.93055523 -237.63671875 260.00390625 C-247.95695697 260.62212342 -256.11369221 258.72076918 -264.15234375 251.76171875 C-265.99920418 249.81333957 -267.51095378 247.85649545 -269 245.625 C-269.43183594 244.99335938 -269.86367188 244.36171875 -270.30859375 243.7109375 C-274.30161545 236.55389515 -274.20806096 227.56771853 -273 219.625 C-270.58613984 211.68745255 -266.14810892 205.01372864 -259 200.625 C-257.00722644 199.93703344 -255.00769178 199.26813151 -253 198.625 C-253.01110306 197.39804413 -253.02220612 196.17108826 -253.03364563 194.9069519 C-253.13501996 183.34201294 -253.20996487 171.77716417 -253.25906086 160.21188164 C-253.28515029 154.266066 -253.32053741 148.32060915 -253.37719727 142.375 C-253.43153884 136.63672486 -253.46142546 130.89879474 -253.47438622 125.16028214 C-253.48362212 122.97139174 -253.50165781 120.78252015 -253.52865028 118.5937767 C-253.56496814 115.52678427 -253.56994407 112.46121596 -253.56762695 109.39404297 C-253.58560333 108.48989151 -253.60357971 107.58574005 -253.62210083 106.65419006 C-253.58748785 102.41778892 -253.38070774 99.52980867 -250.69456482 96.14242554 C-248.52131654 94.11204546 -247.00723117 92.71894072 -244.31933594 91.57714844 C-243.62955658 91.27460648 -242.93977722 90.97206451 -242.22909546 90.66035461 C-241.11795883 90.20199471 -241.11795883 90.20199471 -239.984375 89.734375 C-239.19342438 89.39250656 -238.40247375 89.05063812 -237.58755493 88.69841003 C-234.98115522 87.57568359 -232.36579996 86.47562469 -229.75 85.375 C-227.90503126 84.58446626 -226.06080432 83.79219928 -224.21728516 82.99829102 C-220.38563563 81.34975316 -216.55089797 79.70872522 -212.71386719 78.07275391 C-204.75245327 74.67122408 -196.83307046 71.1749212 -188.9119873 67.68078613 C-184.64921943 65.80178808 -180.38332598 63.92992391 -176.1171875 62.05859375 C-175.2758728 61.68952911 -174.43455811 61.32046448 -173.56774902 60.94021606 C-163.74668256 56.63407978 -153.91466216 52.3531083 -144.0824585 48.07247925 C-130.68768193 42.24033857 -117.30764166 36.37518671 -103.93310547 30.49679565 C-94.50213477 26.35209792 -85.06844006 22.21387745 -75.625 18.09765625 C-74.35548996 17.5442028 -74.35548996 17.5442028 -73.06033325 16.97956848 C-68.91011315 15.1709877 -64.75863416 13.36537891 -60.60498047 11.56469727 C-53.48221512 8.47386692 -46.37503616 5.36070259 -39.3203125 2.1171875 C-38.17369141 1.59503662 -37.02707031 1.07288574 -35.84570312 0.53491211 C-33.7883082 -0.40566921 -31.73681015 -1.35933101 -29.69335938 -2.32983398 C-18.15098327 -7.58344065 -11.26210136 -5.17929322 0 0 Z M-26.04296875 21.6328125 C-26.75005981 21.94957947 -27.45715088 22.26634644 -28.18566895 22.5927124 C-29.71742162 23.27959384 -31.24805016 23.96898636 -32.77767944 24.6605835 C-36.05141416 26.14055287 -39.33060588 27.60823794 -42.60957336 29.0765686 C-44.29481027 29.83131708 -45.97977488 30.58667381 -47.66447449 31.34262085 C-55.31846163 34.7754622 -62.9980366 38.1475477 -70.6875 41.5 C-73.3152411 42.64682183 -75.94278474 43.79409571 -78.5703125 44.94140625 C-79.23958771 45.23356522 -79.90886292 45.52572418 -80.59841919 45.82673645 C-88.55476966 49.30135856 -96.502059 52.7965999 -104.4503479 56.28961182 C-119.58098924 62.93864439 -134.72240832 69.56227505 -149.87579346 76.15930176 C-169.27001427 84.60345819 -188.6360008 93.11181566 -208 101.625 C-207.15580532 103.86172575 -207.15580532 103.86172575 -204.65333557 104.58682251 C-203.61345993 104.91991425 -202.57358429 105.25300598 -201.50219727 105.59619141 C-199.74015709 106.16655624 -199.74015709 106.16655624 -197.94252014 106.7484436 C-196.65056065 107.15806414 -195.3585207 107.567431 -194.06640625 107.9765625 C-192.7496461 108.39910938 -191.43307419 108.82224325 -190.11668396 109.24594116 C-187.35488928 110.13313832 -184.59155127 111.01528685 -181.8269043 111.89355469 C-178.27906041 113.02074061 -174.73422995 114.15705911 -171.19038486 115.29674721 C-168.47091138 116.17082182 -165.75042103 117.04169172 -163.02955437 117.91141891 C-161.72198995 118.329464 -160.41462261 118.74812598 -159.1074543 119.16740799 C-157.28166408 119.75215054 -155.45446312 120.33248276 -153.62719727 120.91259766 C-152.58652603 121.24409821 -151.5458548 121.57559875 -150.47364807 121.91714478 C-148.10835212 122.71670529 -148.10835212 122.71670529 -146 122.625 C-145.34515625 121.91859375 -144.6903125 121.2121875 -144.015625 120.484375 C-140.24446088 116.58146716 -135.52720427 114.34333602 -130.75 111.875 C-129.74219482 111.35349365 -128.73438965 110.8319873 -127.69604492 110.29467773 C-93.76817773 93.21180447 -55.8151573 86.37827022 -18.0625 86.4375 C-17.288992 86.43843658 -16.51548401 86.43937317 -15.71853638 86.44033813 C23.51608443 86.5430373 80.16918887 92.53107896 110.34472656 120.82339478 C112.83891977 122.9150856 112.83891977 122.9150856 115.69360352 122.43612671 C116.66225342 122.11350861 117.63090332 121.7908905 118.62890625 121.45849609 C119.73355225 121.10427582 120.83819824 120.75005554 121.97631836 120.38510132 C123.1597583 119.97700226 124.34319824 119.5689032 125.5625 119.1484375 C126.78654541 118.74799225 128.01059082 118.347547 129.27172852 117.93496704 C132.52605669 116.86976905 135.76934145 115.77414347 139.01135254 114.67211914 C142.30071582 113.56038664 145.60005565 112.4791436 148.8984375 111.39453125 C161.55385116 107.2992926 161.55385116 107.2992926 174 102.625 C171.67417111 100.29917111 169.71037793 99.50756465 166.68359375 98.21875 C165.54881592 97.73188721 164.41403809 97.24502441 163.24487305 96.7434082 C162.62848969 96.4814566 162.01210632 96.219505 161.37704468 95.94961548 C157.97090029 94.50146148 154.57201128 93.03640941 151.171875 91.57421875 C150.43837326 91.25929977 149.70487152 90.9443808 148.94914246 90.61991882 C140.00629176 86.77667904 131.09759396 82.8559234 122.1875 78.9375 C120.44086205 78.16994531 118.69419842 77.40244905 116.94750977 76.63500977 C112.51394344 74.68685901 108.08069112 72.73799479 103.64752197 70.78894043 C78.55027375 59.75533913 53.44813492 48.73335076 28.30514526 37.80429077 C23.23014695 35.59763783 18.15868957 33.3830331 13.08917236 31.16381836 C9.63849515 29.65440025 6.18585849 28.14950282 2.73278809 26.64556885 C1.08945357 25.92869558 -0.55305764 25.20993175 -2.19470215 24.48919678 C-4.45576248 23.49686128 -6.71966452 22.51131421 -8.984375 21.52734375 C-9.65428467 21.23138809 -10.32419434 20.93543243 -11.0144043 20.63050842 C-17.15154676 17.97990917 -20.18837078 18.96448245 -26.04296875 21.6328125 Z M-125 134.625 C-125.09502416 137.11992388 -125.12557566 139.58706014 -125.11352539 142.08227539 C-125.11367142 142.86270706 -125.11381744 143.64313873 -125.1139679 144.44721985 C-125.11326858 147.0390598 -125.10547536 149.63082878 -125.09765625 152.22265625 C-125.09579213 154.0148464 -125.0943682 155.80703706 -125.09336853 157.59922791 C-125.08954284 162.32570797 -125.07971212 167.05215752 -125.06866455 171.77862549 C-125.05845153 176.5978555 -125.05387115 181.41709042 -125.04882812 186.23632812 C-125.03808989 195.69923219 -125.02101286 205.16211356 -125 214.625 C-123.58841624 214.15972977 -122.17729277 213.69306294 -120.76635742 213.22583008 C-119.98048752 212.96610916 -119.19461761 212.70638824 -118.38493347 212.438797 C-115.41731967 211.42617537 -112.49867772 210.30491775 -109.57348633 209.17700195 C-84.41747509 199.55844718 -57.59136154 193.55373182 -30.5859375 193.421875 C-29.62140656 193.41486069 -28.65687561 193.40784637 -27.66311646 193.40061951 C-24.56702964 193.38320793 -21.47113398 193.3767672 -18.375 193.375 C-17.31821045 193.37432526 -16.2614209 193.37365051 -15.17260742 193.37295532 C0.10628557 193.38848029 14.95361134 193.73409023 30 196.625 C30.92425781 196.79128906 31.84851563 196.95757812 32.80078125 197.12890625 C51.42639992 200.53142116 69.73146428 206.05916688 87.0234375 213.8125 C88.95212775 214.75173271 88.95212775 214.75173271 91 214.625 C91 188.225 91 161.825 91 134.625 C67.00274623 122.62637311 44.4277506 114.60808223 18 110.625 C17.24525391 110.50640625 16.49050781 110.3878125 15.71289062 110.265625 C-22.76471616 104.43673596 -95.40352711 105.02852711 -125 134.625 Z M-111 233.625 C-111.66 234.285 -112.32 234.945 -113 235.625 C-55.29283736 259.76035734 8.04232781 262.14433969 67.0625 240.4375 C67.71138184 240.1998291 68.36026367 239.9621582 69.02880859 239.71728516 C72.42161241 238.41572364 75.22038864 236.97484601 78 234.625 C21.09974496 208.44902623 -54.03282438 206.05447223 -111 233.625 Z M-247.9375 221.6875 C-250.23534372 224.5210646 -250.23534372 224.5210646 -250.625 228.125 C-249.82883761 232.58350936 -248.69186542 234.03283917 -245 236.625 C-241.5 237.54166667 -241.5 237.54166667 -238 236.625 C-234.82668938 234.20037156 -234.82668938 234.20037156 -233 230.625 C-232.93125491 226.63778471 -233.41668513 224.4999723 -235.625 221.1875 C-240.10991521 218.23689789 -243.63564378 218.66704776 -247.9375 221.6875 Z " fill="#000000" transform="translate(273,22.375)"/>
<path d="M0 0 C6.69019752 4.7825152 13.23660734 10.22070055 18 17 C18 17.66 18 18.32 18 19 C18.66 19 19.32 19 20 19 C20.2578125 18.42894531 20.515625 17.85789062 20.78125 17.26953125 C27.87387257 4.061795 43.50275388 -4.60968295 57.375 -8.875 C74.8099087 -12.4767243 91.50307542 -9.39329386 108.375 -4.8125 C110.56367259 -4.23998336 112.75299008 -3.66992768 114.94287109 -3.10205078 C119.84829209 -1.82434655 124.748925 -0.52962899 129.64648438 0.77783203 C138.13183149 3.04202525 146.62851153 5.2622035 155.12613678 7.47979736 C170.67246075 11.53710113 186.21104505 15.62302798 201.74552155 19.72543335 C211.9039331 22.40705715 222.06895703 25.05774703 232.25 27.65234375 C234.24661552 28.16376902 236.24319939 28.67531785 238.23974609 29.18701172 C241.692917 30.07174 245.14912092 30.94271384 248.60791016 31.80517578 C250.08511408 32.18332153 251.56217665 32.56202012 253.0390625 32.94140625 C254.25803223 33.24763916 255.47700195 33.55387207 256.73291016 33.86938477 C261.66671723 35.57678729 265.09119103 37.63678654 268 42 C268.85623429 46.73182107 268.56936244 50.09257861 266 54.1875 C263.88672223 56.37860387 261.54838726 58.06617613 259.0625 59.8125 C248.77426779 67.27195273 244.9454823 79.96872791 243 92 C244.093125 92.0825 245.18625 92.165 246.3125 92.25 C256.32800993 93.57714354 264.34355851 97.29399512 271 105 C276.16689891 112.12194174 275.85455521 120.548449 275 129 C272.78306381 139.55306872 268.97018785 147.74301712 260 154 C251.05006603 159.26350742 240.1239071 157.58249779 230.53076172 155.11083984 C227.32205557 154.25639639 224.12590366 153.3607927 220.9296875 152.4609375 C219.17990291 151.98144667 217.42971419 151.50342856 215.67915344 151.02677917 C211.0295198 149.7564961 206.38562115 148.46635854 201.74261093 147.1721077 C196.94927736 145.8397083 192.15081327 144.52605915 187.3527832 143.21069336 C179.74858147 141.123697 172.14723953 139.02662761 164.54833984 136.92041016 C155.38723081 134.38129884 146.22088259 131.86188859 137.05078125 129.35546875 C125.69675311 126.25056522 114.3463886 123.13270373 103 120 C102.54294678 121.17127441 102.54294678 121.17127441 102.07666016 122.36621094 C95.32191443 138.89006511 80.22758094 149.39583423 64.65625 156.7109375 C54.70558483 160.21918484 45.11320044 161.46038477 34.60546875 161.43359375 C33.37443924 161.4388356 32.14340973 161.44407745 30.87507629 161.44947815 C28.28936512 161.45585671 25.70362476 161.45461596 23.11791992 161.44604492 C19.20763325 161.43754377 15.29881461 161.46634501 11.38867188 161.49804688 C-13.21385216 161.56909834 -33.73351912 157.69654388 -52 140 C-65 125.798151 -65 125.798151 -65 120 C-65.67141022 120.18331375 -66.34282043 120.3666275 -67.03457642 120.55549622 C-69.1146999 121.12339592 -71.19483529 121.69125202 -73.27497864 122.25907898 C-75.14546506 122.76968128 -77.01595078 123.28028615 -78.88640404 123.7910099 C-86.75677144 125.93999714 -94.6279492 128.08595315 -102.50073242 130.22607422 C-105.56956599 131.06062516 -108.63832261 131.89545854 -111.70703125 132.73046875 C-112.87640134 133.0486129 -112.87640134 133.0486129 -114.06939507 133.3731842 C-124.61032613 136.24236099 -135.141666 139.14417948 -145.66516113 142.0766449 C-151.23615499 143.62873 -156.81024332 145.16956047 -162.38513565 146.70757771 C-166.21375601 147.76463704 -170.04044209 148.82784698 -173.86334229 149.90542603 C-177.47591829 150.9236817 -181.09254245 151.92608039 -184.7126255 152.91730309 C-186.65840079 153.45450846 -188.59955234 154.00837665 -190.54045105 154.5629425 C-199.87280921 157.09595867 -210.87794367 159.34241537 -220.09375 155.1640625 C-227.57201447 150.5974174 -232.31535243 145.33575656 -235 137 C-235.4125 135.80375 -235.825 134.6075 -236.25 133.375 C-238.24311479 124.23227162 -238.47561298 114.34446651 -233.6015625 106.1484375 C-227.86712971 98.45590571 -220.40734227 94.11995203 -210.875 92.67871094 C-208.91918451 92.4316515 -206.95975595 92.21356315 -205 92 C-207.03102528 82.37055071 -209.12920901 74.10651687 -215 66 C-215.8971875 64.6696875 -215.8971875 64.6696875 -216.8125 63.3125 C-219.59805193 60.36777367 -222.71378436 58.04403208 -225.9765625 55.6484375 C-228.37878967 53.69141073 -229.83357615 52.03337602 -230.3359375 48.9140625 C-230.40154541 45.06943889 -230.30512267 42.58481845 -228.5 39.125 C-223.17912037 34.60225231 -215.60523004 33.24580874 -208.94360352 31.54248047 C-208.0702835 31.31544213 -207.19696348 31.0884038 -206.29717922 30.85448551 C-203.40879238 30.10464985 -200.51886663 29.36093328 -197.62890625 28.6171875 C-195.57338366 28.08475187 -193.51796597 27.55191115 -191.46264648 27.01869202 C-185.96577436 25.59366569 -180.467597 24.17373856 -174.9691658 22.75474167 C-169.2904064 21.28825169 -163.6128655 19.81706204 -157.93530273 18.34594727 C-155.65779313 17.75586693 -153.38028154 17.1657943 -151.10276794 16.57572937 C-149.97709349 16.28408087 -148.85141903 15.99243237 -147.69163322 15.69194603 C-144.27944639 14.80812658 -140.86710681 13.92489907 -137.45472717 13.04182434 C-123.99613417 9.55833641 -110.54169063 6.05954608 -97.09375 2.53515625 C-96.31903791 2.33216415 -95.54432583 2.12917206 -94.74613762 1.92002869 C-87.64471405 0.05906087 -80.54395643 -1.80443288 -73.4438343 -3.67035961 C-70.35994885 -4.48043906 -67.27562744 -5.28885615 -64.19140625 -6.09765625 C-63.11286377 -6.38180893 -62.03432129 -6.66596161 -60.9230957 -6.95872498 C-59.94115234 -7.21605911 -58.95920898 -7.47339325 -57.94750977 -7.73852539 C-57.10551529 -7.95988663 -56.26352081 -8.18124786 -55.39601135 -8.40931702 C-36.34793213 -13.10519471 -16.72848062 -10.22296038 0 0 Z M-67.8125 18.23046875 C-69.91236549 18.78406186 -72.01272049 19.33580103 -74.11352539 19.88581848 C-79.63648055 21.33709029 -85.15249931 22.81316548 -90.6673584 24.29486084 C-96.09981551 25.74992998 -101.53839825 27.18167321 -106.9765625 28.61523438 C-116.68583591 31.1784144 -126.38962495 33.76166247 -136.09101868 36.35449028 C-147.53682452 39.41274417 -158.98820455 42.44990129 -170.43997192 45.48574257 C-174.70820159 46.61731503 -178.97625861 47.74953783 -183.24430847 48.88178825 C-187.16284012 49.92131356 -191.08141988 50.96065744 -195 52 C-193.58583945 55.61581147 -191.97156473 58.95933363 -190.125 62.375 C-186.58811755 69.32740128 -184.75407633 76.44715368 -183 84 C-178.49388004 85.40299332 -174.89087651 84.17322939 -170.46899414 82.94555664 C-169.60791046 82.71471375 -168.74682678 82.48387085 -167.85964966 82.24603271 C-164.99891125 81.47661157 -162.1421244 80.69345058 -159.28515625 79.91015625 C-157.27548573 79.36656348 -155.2655888 78.82380714 -153.25547791 78.28184509 C-147.93610782 76.8451278 -142.61999634 75.39668902 -137.30444336 73.94592285 C-132.00896225 72.50291522 -126.71038188 71.07138897 -121.41210938 69.63867188 C-106.51107587 65.60532496 -91.61128018 61.56707483 -76.73779297 57.43310547 C-76.04794406 57.24160007 -75.35809515 57.05009466 -74.64734173 56.85278606 C-71.56072032 55.9955171 -68.47516933 55.13473171 -65.39137268 54.26734924 C-63.83143837 53.8322831 -63.83143837 53.8322831 -62.23999023 53.38842773 C-61.36237534 53.1416478 -60.48476044 52.89486786 -59.58055115 52.64060974 C-47.97899647 49.76057811 -37.33597771 50.46688154 -26.63671875 56.28515625 C-19.20262571 61.46736868 -13.08004489 69.09198168 -11 78 C-10.50884517 81.3132822 -10.06977993 84.61762939 -9.72265625 87.94921875 C-8.87203377 91.54022501 -7.52334151 93.34385104 -5 96 C-0.99836615 98.27119759 2.47708114 98.05832603 7 98 C7.10222931 91.24150659 7.17181011 84.48321584 7.21972656 77.72412109 C7.2397223 75.42944894 7.26692802 73.13482696 7.30175781 70.84033203 C7.56338783 53.14952583 7.3191688 39.82720498 -5 26 C-14.6880812 16.58103216 -25.31025152 12.66914593 -38.63883972 12.59869099 C-48.69881918 12.79388159 -58.16174914 15.61006152 -67.8125 18.23046875 Z M40.625 28.375 C31.53226591 39.85917571 29.81653657 52.71006505 29.90234375 66.84765625 C29.9037587 67.74495956 29.90517365 68.64226288 29.90663147 69.5667572 C29.9121749 72.39870714 29.92471642 75.23057445 29.9375 78.0625 C29.94252233 79.99674364 29.94708394 81.93098853 29.95117188 83.86523438 C29.96212571 88.57685417 29.97935047 93.28841313 30 98 C37.36646423 98.15661105 37.36646423 98.15661105 44 95 C47.3078153 91.58600791 47.72445525 87.90344679 48.375 83.375 C50.43855422 71.26817792 54.74831485 63.28018221 65 56 C75.3996493 50.54395211 85.26166928 49.93539519 96.5559082 52.68017578 C97.29551694 52.8573218 98.03512568 53.03446781 98.7971468 53.21698189 C108.02724907 55.45394575 117.19011662 57.943431 126.35546875 60.4296875 C128.27380706 60.94791511 130.19220957 61.46590512 132.110672 61.9836731 C137.12176733 63.33680948 142.13196025 64.69325748 147.14196777 66.05041504 C152.18065675 67.41465184 157.22026738 68.77547511 162.25976562 70.13671875 C168.84225027 71.91537152 175.42466456 73.69428522 182.00623035 75.47633553 C183.72092908 75.94057647 185.43573963 76.40440457 187.15066814 76.86779594 C191.80327471 78.12667608 196.45147677 79.40009862 201.09585571 80.68902588 C202.10300534 80.96731295 203.11015497 81.24560001 204.14782429 81.53232002 C206.09405211 82.07052416 208.03943661 82.61178974 209.98385143 83.15650749 C210.85823518 83.39780954 211.73261892 83.6391116 212.63349915 83.88772583 C213.4056844 84.1028438 214.17786966 84.31796177 214.97345448 84.53959846 C217.14121132 85.11077006 217.14121132 85.11077006 220 85 C220.27972656 84.00742187 220.55945313 83.01484375 220.84765625 81.9921875 C223.34275695 73.43831298 226.37711185 65.67019523 230.546875 57.79296875 C232.07732341 55.03025057 232.07732341 55.03025057 233 52 C227.04437044 50.42540426 221.08861758 48.85127546 215.1328125 47.27734375 C214.20934273 47.03327852 213.28587296 46.78921329 212.33441925 46.53775215 C201.08729133 43.56548131 189.83903239 40.59757186 178.58837891 37.63867188 C175.45210824 36.81371985 172.31583853 35.9887642 169.17956924 35.16380692 C167.08651865 34.61329146 164.99344757 34.06285387 162.90035629 33.51249313 C151.2072112 30.43725702 139.51921823 27.34495044 127.84512329 24.19813538 C122.55457297 22.77234001 117.25919842 21.36486376 111.96331787 19.95901489 C109.60016964 19.3274392 107.23896974 18.68852063 104.87994385 18.04171753 C81.1831409 11.54968046 59.04721363 8.49592763 40.625 28.375 Z M-56.63696289 74.88916016 C-57.39395855 75.09127043 -58.15095421 75.2933807 -58.93088913 75.50161552 C-61.44644213 76.17484445 -63.95950301 76.85693484 -66.47265625 77.5390625 C-68.25300277 78.01742872 -70.03349808 78.49524146 -71.81413269 78.97253418 C-76.58036542 80.25174559 -81.3445132 81.53856483 -86.10829163 82.82688141 C-91.02706531 84.15575338 -95.94769881 85.47770105 -100.86816406 86.80029297 C-108.66523524 88.89698163 -116.46124382 90.99757183 -124.25634766 93.1015625 C-133.3812296 95.56442796 -142.5082704 98.01914049 -151.63671875 100.46875 C-168.09046413 104.88339036 -168.09046413 104.88339036 -184.53540039 109.33068848 C-186.20161212 109.78318174 -187.8681247 110.23456842 -189.53491211 110.68493652 C-191.97750848 111.34585625 -194.41861349 112.01202771 -196.859375 112.6796875 C-197.92191498 112.96599533 -197.92191498 112.96599533 -199.00592041 113.25808716 C-207.10319341 115.08353692 -207.10319341 115.08353692 -214 119 C-214.45030333 124.62879162 -213.46407704 128.07184593 -211 133 C-210.67 133.33 -210.34 133.66 -210 134 C-201.77828668 133.55815057 -194.04402861 131.3026634 -186.1484375 129.125 C-184.67324869 128.72350587 -183.19789218 128.32262745 -181.72238159 127.9223175 C-178.57561454 127.06726937 -175.43001229 126.20810675 -172.28527832 125.34561157 C-167.34015733 123.98941596 -162.39247798 122.64273237 -157.44433594 121.29760742 C-150.65373523 119.45083348 -143.86411334 117.60050817 -137.07519531 115.74755859 C-123.8756431 112.14557681 -110.6708025 108.56317756 -97.46260643 104.99302864 C-93.35720608 103.8832197 -89.25266704 102.77030149 -85.14884377 101.65467548 C-82.02171958 100.80527095 -78.89359089 99.95957999 -75.765625 99.11328125 C-74.65339569 98.81005447 -73.54116638 98.5068277 -72.39523315 98.19441223 C-71.3705191 97.91796371 -70.34580505 97.6415152 -69.29003906 97.35668945 C-68.40737366 97.11723099 -67.52470825 96.87777252 -66.61529541 96.63105774 C-60.29509614 95.10602518 -56.86940932 94.67769284 -51 98 C-48.45652115 101.70621204 -46.66455508 105.7552536 -44.75 109.8125 C-37.71833585 124.11958274 -26.88352562 131.71874897 -12 137 C-8.872695 137.93131973 -6.03869122 138.14190548 -2.77929688 138.17700195 C-1.2161676 138.19625481 -1.2161676 138.19625481 0.37854004 138.21589661 C1.50143433 138.22328354 2.62432861 138.23067047 3.78125 138.23828125 C4.94571655 138.246353 6.11018311 138.25442474 7.30993652 138.26274109 C9.77789832 138.27657278 12.24587917 138.28729902 14.71386719 138.29516602 C17.22369029 138.30665669 19.73348953 138.32706181 22.24316406 138.35668945 C25.88102735 138.39963179 29.5181638 138.41557543 33.15625 138.42578125 C34.26295044 138.44328934 35.36965088 138.46079742 36.5098877 138.47883606 C50.42560502 138.44069192 63.04689141 133.09956695 73.3515625 123.73828125 C79.4525532 117.3047721 83.17931822 109.91801733 86.54296875 101.78515625 C88.1027799 98.80353333 89.05835443 97.58315916 92 96 C97.06252138 94.68068475 101.00761857 95.4479498 105.9296875 96.83203125 C106.74831268 97.05149414 107.56693787 97.27095703 108.41036987 97.49707031 C111.23510973 98.25753871 114.05479709 99.03538841 116.875 99.8125 C118.9257932 100.36728998 120.97691448 100.92086827 123.02832031 101.47338867 C128.65576096 102.99275157 134.27966194 104.52485699 139.90247345 106.06123638 C155.87335722 110.42500593 171.84881506 114.77199725 187.82598686 119.11268139 C194.44019696 120.91030422 201.05238699 122.71514224 207.66314125 124.52543068 C211.85543224 125.6722267 216.04911537 126.81386786 220.24313736 127.95431519 C222.22438991 128.49427526 224.20503969 129.03645234 226.18505478 129.58093262 C228.92097741 130.33296269 231.65891295 131.07717694 234.39746094 131.81958008 C235.2002693 132.04229993 236.00307766 132.26501978 236.83021355 132.49448872 C242.3314008 133.98641711 242.3314008 133.98641711 248 134 C251.50269136 130.49730864 251.87294187 127.20705225 252.375 122.4375 C252.25125 121.303125 252.1275 120.16875 252 119 C247.87450069 115.6963133 243.03843782 114.83585058 238 113.6875 C231.08558072 112.08868803 224.26776347 110.23570267 217.4519043 108.26464844 C206.50607775 105.11956012 195.52035411 102.13729477 184.51953125 99.19140625 C182.52670856 98.65639426 180.53392693 98.12122929 178.54118347 97.58592224 C173.34861076 96.19146688 168.15551059 94.79898645 162.96228027 93.40698242 C156.71998612 91.73337118 150.47825601 90.0576565 144.23669243 88.38132286 C139.23017666 87.03691541 134.2231027 85.69467513 129.21463013 84.35757446 C120.98404629 82.15843597 112.75879602 79.94985063 104.56396484 77.62060547 C102.75094124 77.11121681 102.75094124 77.11121681 100.90129089 76.59153748 C98.78495699 75.99412106 96.67180051 75.38524156 94.56318665 74.76112366 C88.37388298 73.02376498 82.68213705 71.97290016 76.7578125 75.234375 C75.94957031 75.98460937 75.94957031 75.98460937 75.125 76.75 C74.57070313 77.23984375 74.01640625 77.7296875 73.4453125 78.234375 C70.25685046 82.12946917 69.72858398 86.30585226 69.1875 91.1875 C67.801331 100.55207681 64.65866559 107.54806753 57.1796875 113.53125 C48.75135043 119.21055957 40.47856878 120.15510476 30.54296875 120.16796875 C29.18937004 120.17296135 29.18937004 120.17296135 27.8084259 120.17805481 C25.9047598 120.18310165 24.0010849 120.18546383 22.09741211 120.18530273 C19.20736877 120.187485 16.3177101 120.20565306 13.42773438 120.22460938 C11.57031379 120.22754473 9.71289141 120.22952858 7.85546875 120.23046875 C7.00204391 120.23765427 6.14861908 120.24483978 5.26933289 120.25224304 C-5.61718534 120.21143805 -14.50049659 117.69228457 -22.82421875 110.40234375 C-28.72030596 104.12011481 -30.8914188 96.71151205 -31.875 88.3125 C-32.67012975 82.34550859 -34.22139935 78.73771734 -39 75 C-44.93127046 71.67270193 -50.37976176 73.17432379 -56.63696289 74.88916016 Z " fill="#000000" transform="translate(237,334)"/>
<path d="M0 0 C6.69019752 4.7825152 13.23660734 10.22070055 18 17 C18 17.66 18 18.32 18 19 C18.66 19 19.32 19 20 19 C20.2578125 18.42894531 20.515625 17.85789062 20.78125 17.26953125 C27.87387257 4.061795 43.50275388 -4.60968295 57.375 -8.875 C74.8099087 -12.4767243 91.50307542 -9.39329386 108.375 -4.8125 C110.56367259 -4.23998336 112.75299008 -3.66992768 114.94287109 -3.10205078 C119.84829209 -1.82434655 124.748925 -0.52962899 129.64648438 0.77783203 C138.13183149 3.04202525 146.62851153 5.2622035 155.12613678 7.47979736 C170.67246075 11.53710113 186.21104505 15.62302798 201.74552155 19.72543335 C211.9039331 22.40705715 222.06895703 25.05774703 232.25 27.65234375 C234.24661552 28.16376902 236.24319939 28.67531785 238.23974609 29.18701172 C241.692917 30.07174 245.14912092 30.94271384 248.60791016 31.80517578 C250.08511408 32.18332153 251.56217665 32.56202012 253.0390625 32.94140625 C254.25803223 33.24763916 255.47700195 33.55387207 256.73291016 33.86938477 C261.66671723 35.57678729 265.09119103 37.63678654 268 42 C268.85623429 46.73182107 268.56936244 50.09257861 266 54.1875 C263.88672223 56.37860387 261.54838726 58.06617613 259.0625 59.8125 C250.29585859 66.16872776 245.95886618 76.69272716 243.9375 87.0625 C243.82277344 87.79597656 243.70804687 88.52945313 243.58984375 89.28515625 C243.39519531 89.85105469 243.20054687 90.41695313 243 91 C239.57469763 92.14176746 238.68326326 91.83108216 235.33203125 90.78515625 C234.43935547 90.51123047 233.54667969 90.23730469 232.62695312 89.95507812 C231.69818359 89.66052734 230.76941406 89.36597656 229.8125 89.0625 C228.40194336 88.62647461 228.40194336 88.62647461 226.96289062 88.18164062 C224.63939029 87.46218113 222.31871482 86.73470814 220 86 C220.78770526 78.69214801 222.42054525 72.32996876 225.375 65.625 C225.66705322 64.95984375 225.95910645 64.2946875 226.26000977 63.609375 C228.16086479 59.44723902 230.36931866 55.74321618 233 52 C232.43311966 51.91390472 231.86623932 51.82780945 231.28218079 51.73910522 C221.50570444 50.11444485 211.99170427 47.49817601 202.41796875 44.9765625 C200.48132142 44.46972018 198.54457702 43.9632486 196.60774231 43.4571228 C191.49696531 42.12056653 186.38747494 40.77915608 181.27825928 39.43664551 C177.24899393 38.37854463 173.21900556 37.32321713 169.1889019 36.26831436 C167.19873842 35.74736256 165.20863265 35.2261902 163.21858406 34.70479965 C158.21861668 33.39485296 153.2180516 32.08727515 148.21627808 30.78424072 C138.96181525 28.37014189 129.71537612 25.93440222 120.49249172 23.40193367 C116.34171527 22.26420643 112.18674705 21.14226033 108.03130531 20.02170944 C106.07990011 19.49088179 104.13051711 18.95254963 102.18349266 18.40587234 C86.58137447 14.02825463 70.28687428 10.36731312 55 18 C42.8509101 25.16650709 35.77609575 34.39357233 32 48 C31.04022717 54.25632044 30.80777659 60.52892361 30.68359375 66.84765625 C30.6524221 68.19361122 30.6524221 68.19361122 30.62062073 69.5667572 C30.55587774 72.39860288 30.49659482 75.23053141 30.4375 78.0625 C30.39424298 79.99675294 30.35062656 81.93099788 30.30664062 83.86523438 C30.19960686 88.57673976 30.09997699 93.2883186 30 98 C22.41 98 14.82 98 7 98 C6.96132813 92.90304687 6.96132813 92.90304687 6.921875 87.703125 C6.88335591 84.37670959 6.83822743 81.05044405 6.79248047 77.72412109 C6.76442377 75.42959871 6.74313393 73.13498243 6.72900391 70.84033203 C6.61543679 53.43427931 6.33282704 39.4935637 -6 26 C-16.38156574 16.51147218 -27.18788974 13.30988922 -41.0838623 13.62487793 C-50.27348296 14.1257895 -59.11540575 16.86713502 -67.953125 19.265625 C-70.06257522 19.82160576 -72.1725124 20.37574179 -74.28289795 20.92816162 C-79.82711641 22.38473304 -85.36438873 23.86615323 -90.9005127 25.35314941 C-96.37238792 26.81828543 -101.85049808 28.25967294 -107.328125 29.703125 C-123.52295604 33.9779603 -139.70494847 38.30044774 -155.87686539 42.66115189 C-160.08066781 43.79415275 -164.28536836 44.92379931 -168.49013519 46.05321503 C-171.42152035 46.84245221 -174.35131072 47.63741916 -177.28106689 48.43267822 C-179.04895857 48.90818982 -180.81691923 49.38344499 -182.58496094 49.85839844 C-183.38419228 50.07719414 -184.18342361 50.29598984 -185.00687408 50.52141571 C-188.49090385 51.45161187 -191.36650731 52 -195 52 C-194.55269531 52.69222656 -194.10539062 53.38445312 -193.64453125 54.09765625 C-187.4734395 64.08456167 -183.41489655 74.24431697 -182 86 C-185.26879616 87.00674459 -188.5403471 88.00422489 -191.8125 89 C-192.74126953 89.28617187 -193.67003906 89.57234375 -194.62695312 89.8671875 C-195.9659668 90.27324219 -195.9659668 90.27324219 -197.33203125 90.6875 C-198.15421143 90.93886719 -198.9763916 91.19023437 -199.82348633 91.44921875 C-202 92 -202 92 -205 92 C-205.21914062 90.96101563 -205.43828125 89.92203125 -205.6640625 88.8515625 C-207.57092509 80.29225635 -209.78117221 73.20627179 -215 66 C-215.8971875 64.6696875 -215.8971875 64.6696875 -216.8125 63.3125 C-219.59805193 60.36777367 -222.71378436 58.04403208 -225.9765625 55.6484375 C-228.37878967 53.69141073 -229.83357615 52.03337602 -230.3359375 48.9140625 C-230.40154541 45.06943889 -230.30512267 42.58481845 -228.5 39.125 C-223.17912037 34.60225231 -215.60523004 33.24580874 -208.94360352 31.54248047 C-208.0702835 31.31544213 -207.19696348 31.0884038 -206.29717922 30.85448551 C-203.40879238 30.10464985 -200.51886663 29.36093328 -197.62890625 28.6171875 C-195.57338366 28.08475187 -193.51796597 27.55191115 -191.46264648 27.01869202 C-185.96577436 25.59366569 -180.467597 24.17373856 -174.9691658 22.75474167 C-169.2904064 21.28825169 -163.6128655 19.81706204 -157.93530273 18.34594727 C-155.65779313 17.75586693 -153.38028154 17.1657943 -151.10276794 16.57572937 C-149.97709349 16.28408087 -148.85141903 15.99243237 -147.69163322 15.69194603 C-144.27944639 14.80812658 -140.86710681 13.92489907 -137.45472717 13.04182434 C-123.99613417 9.55833641 -110.54169063 6.05954608 -97.09375 2.53515625 C-96.31903791 2.33216415 -95.54432583 2.12917206 -94.74613762 1.92002869 C-87.64471405 0.05906087 -80.54395643 -1.80443288 -73.4438343 -3.67035961 C-70.35994885 -4.48043906 -67.27562744 -5.28885615 -64.19140625 -6.09765625 C-63.11286377 -6.38180893 -62.03432129 -6.66596161 -60.9230957 -6.95872498 C-59.94115234 -7.21605911 -58.95920898 -7.47339325 -57.94750977 -7.73852539 C-57.10551529 -7.95988663 -56.26352081 -8.18124786 -55.39601135 -8.40931702 C-36.34793213 -13.10519471 -16.72848062 -10.22296038 0 0 Z " fill="#32CCCC" transform="translate(237,334)"/>
</svg>
